<?xml version="1.0" encoding="UTF-8" standalone="no"?><!DOCTYPE svg PUBLIC "-//W3C//DTD SVG 1.1//EN" "http://www.w3.org/Graphics/SVG/1.1/DTD/svg11.dtd"><svg width="100%" height="100%" viewBox="0 0 1000 1000" version="1.1" xmlns="http://www.w3.org/2000/svg" xmlns:xlink="http://www.w3.org/1999/xlink" xml:space="preserve" xmlns:serif="http://www.serif.com/" style="fill-rule:evenodd;clip-rule:evenodd;stroke-linejoin:round;stroke-miterlimit:2;"><rect id="TheFox" x="0" y="0" width="1000" height="1000" style="fill:#fff;"/><clipPath id="_clip1"><rect x="0" y="0" width="1000" height="1000"/></clipPath><g clip-path="url(#_clip1)"><rect x="0" y="0" width="1000" height="1000" style="fill:none;"/><g><g><path d="M826.329,602.905c-36.604,-28.316 -301.676,-77.732 -376.945,-45.267c-52.046,22.449 -201.82,14.822 -254.573,36.561c-103.794,42.773 -37.008,116.522 40.574,118.145c121.279,2.537 179.654,45.408 238.44,48.655c92.438,5.106 200.53,22.123 315.684,-40.872c60.111,-32.884 100.186,-68.202 36.82,-117.222Z" style="fill:#dbbda5;"/><path d="M798.908,607.157c-33.399,-20.421 -275.26,-56.058 -343.938,-32.645c-47.489,16.189 -184.149,10.689 -232.282,26.366c-94.706,30.846 -33.767,84.031 37.021,85.201c110.659,1.83 165.957,23.288 217.561,35.088c100.106,22.89 215.483,38.169 303.725,-27.766c45.43,-33.946 75.73,-50.894 17.913,-86.244Z" style="fill:#c9a48a;"/></g><g><g><path d="M232.986,588.714c-6.993,3.221 -12.958,5.149 -21.219,9.121c-2.302,1.106 -4.375,2.458 -6.221,4.006c-20.992,17.61 -12.396,60.6 26.459,56.764c17.261,-1.704 53.838,-44.821 95.736,-60.232c2.195,-0.807 4.404,-1.538 6.625,-2.184c25.495,-7.404 47.107,-24.475 59.739,-56.356c18.016,-45.472 -20.78,-77.052 -42.106,-37.397c-5.842,10.863 -19.932,35.742 -35.991,47.384c-19.835,14.379 -65.649,30.892 -83.022,38.894Z" style="fill:#7b2f17;"/><path d="M349.67,556.384c25.263,-56.822 -9.654,-39.047 -44.259,-22.499c-17.878,22.712 -42.789,40.444 -72.425,54.829c-6.211,2.221 -12.958,5.149 -21.219,9.121c-2.302,1.106 -4.375,2.458 -6.221,4.006c45.381,25.18 103.805,-5.661 144.124,-45.457Z" style="fill:#5c1600;"/></g><g><ellipse cx="603.849" cy="522.166" rx="181.579" ry="89.575" style="fill:#d75b00;"/><path d="M782.992,507.47c-33.302,18.905 -82.39,30.866 -137.097,30.866c-90.071,-0 -164.913,-32.423 -179.143,-74.88c33.302,-18.905 82.391,-30.865 137.097,-30.865c90.072,-0 164.914,32.422 179.143,74.879Z" style="fill:#ff6400;"/></g><g><path d="M532.781,456.134c-46.102,54.203 -95.436,87.569 -147.784,101.504c-74.419,2.982 -123.248,-27.511 -157.814,-76.664c13.894,-16.42 28.792,-30.669 44.73,-42.673c36.724,-22.051 66.965,-23.129 74.761,48.425c2.107,19.335 42.681,6.585 35.707,-8.395c-18.319,-39.348 -26.1,-74.803 29.49,-86.842c21.964,-0.302 45.118,1.962 69.497,6.873c27.116,19.044 44.655,38.293 51.413,57.772Z" style="fill:#ffdaa5;"/><path d="M380.059,558.892c-58.956,14.271 -121.699,4.128 -187.921,-28.441c10.886,-18.21 22.56,-34.72 35.045,-49.477c34.566,49.153 83.395,79.646 157.814,76.664c-1.64,0.426 -3.286,0.844 -4.938,1.254Z" style="fill:#e2b983;"/><path d="M291.042,471.321c14.727,18.505 35.613,12.595 39.255,-6.129c-9.286,10.948 -22.452,12.801 -39.255,6.129Z" style="fill:#993800;"/><path d="M389.776,445.109c11.024,9.711 35.089,5.498 34.029,-18.956c-8.237,13.964 -19.333,20.89 -34.029,18.956Z" style="fill:#993800;"/><path d="M479.54,362.659c25.085,15.595 51.78,35.244 80.109,59.005c-54.303,-20.945 -103.461,-30.785 -147.778,-30.175c-55.59,12.039 -47.809,47.494 -29.49,86.842c6.974,14.98 -33.6,27.73 -35.707,8.395c-7.796,-71.554 -38.037,-70.476 -74.761,-48.425c-30.262,22.793 -56.776,53.677 -79.775,92.15c4.645,-25.797 10.198,-49.307 16.672,-70.501c-22.222,-46.954 -48.634,-94.034 -36.261,-139.942c38.906,-8.917 78.367,-4.628 118.401,13.298c14.257,-8.532 29.854,-13.689 46.811,-15.423c14.336,-32.067 27.99,-66.819 45.891,-84.844c38.016,18.169 83.538,59.196 95.888,129.62Z" style="fill:#ff7200;"/><path d="M345.723,479.12c2.94,-4.328 8.363,-8.051 15.09,-9.832c6.738,-1.784 13.301,-1.226 17.999,1.089c1.13,2.629 2.325,5.283 3.569,7.954c6.974,14.98 -33.6,27.73 -35.707,8.395c-0.287,-2.633 -0.604,-5.167 -0.951,-7.606Z" style="fill:#5c1600;fill-opacity:0.63;"/><path d="M283.493,425.223c4.917,-14.059 10.092,-27.753 26.086,-26.213c-3.375,9.137 -18.755,13.164 -26.086,26.213Z" style="fill:#993800;"/><path d="M396.102,388.325c-9.805,-2.208 -23.283,1.8 -36.017,-1.542c8.978,-8.345 20.603,-8.943 36.017,1.542Z" style="fill:#993800;"/><path d="M361.339,509.478c6.269,-0.58 12.194,-2.343 17.597,-5.9c3.399,8.351 -13.364,14.658 -17.597,5.9Z" style="fill:#993800;"/><path d="M481.368,398.362c27.116,19.044 44.655,38.293 51.413,57.772c9.082,-10.678 18.038,-22.164 26.868,-34.47c-27.39,-10.564 -53.47,-18.304 -78.281,-23.302Z" style="fill:#ffe5bf;"/></g><g><path d="M353.768,621.582c-51.873,-1.935 -84.207,65.149 -95.28,59.826c-17.547,-8.435 7.356,-76.588 60.796,-123.07c10.663,-9.275 22.462,-17.686 35.287,-24.589c1.922,-1.035 3.867,-2.035 5.835,-3c14.684,-7.197 30.458,-11.339 46.959,-13.008c57.634,-5.832 124.133,18.49 183.987,48.073c47.047,23.253 99.385,40.949 117.493,-42.359c7.555,-34.757 22.186,-55.788 39.081,-64.539c29.765,-15.417 66.558,7.281 84.065,60.19c1.684,5.089 3.017,10.182 4.013,15.267c22.604,115.334 -127.613,226.713 -273.135,192.477c-132.135,-31.086 -127.559,-68.067 -177.865,-95.964c-11.091,-6.151 -21.507,-8.942 -31.236,-9.304Z" style="fill:#d75b00;"/><path d="M319.284,558.338c-1.105,27.135 12.649,44.165 55.279,41.56c46.539,12.768 91.26,33.052 132.145,69.198c90.024,79.587 276.629,19.603 329.296,-134.723c-0.996,-5.085 -2.329,-10.178 -4.013,-15.267c-17.507,-52.909 -54.3,-75.607 -84.065,-60.19c-16.895,8.751 -31.526,29.782 -39.081,64.539c-18.108,83.308 -70.446,65.612 -117.493,42.359c-59.854,-29.583 -126.353,-53.905 -183.987,-48.073c-16.501,1.669 -32.275,5.811 -46.959,13.008c-1.968,0.965 -3.913,1.965 -5.835,3c-12.825,6.903 -24.624,15.314 -35.287,24.589Z" style="fill:#ff7200;"/><path d="M353.768,621.582c-51.873,-1.935 -84.207,65.149 -95.28,59.826c-17.547,-8.435 7.356,-76.588 60.796,-123.07c10.663,-9.275 22.462,-17.686 35.287,-24.589l40.367,0.926l-49.75,30.344c15.528,-1.428 29.568,-0.12 41.086,5.826c-14.938,3.862 -28.705,9.042 -39.416,17.657c11.87,1.788 23.833,2.465 36.137,-0.895c-2.531,4.128 -5.314,8.228 -8.432,12.291c-5.658,7.371 -12.422,14.617 -20.795,21.684Z" style="fill:#fec373;"/><path d="M407.365,517.741c57.634,-5.832 124.133,18.49 183.987,48.073c47.047,23.253 99.385,40.949 117.493,-42.359c7.555,-34.757 22.186,-55.788 39.081,-64.539c-52.255,65.045 15.161,134.521 -75.879,152.778c-109.15,21.889 -172.313,-82.899 -264.682,-93.953Z" style="fill:#ff6400;"/></g><g><path d="M445.853,582.524c-0.472,0.076 -0.946,0.148 -1.42,0.215c-15.458,2.169 -26.518,5.731 -45.998,15.096c-28.491,13.697 -22.032,64.943 20.238,60.77c17.261,-1.704 53.838,-44.821 95.737,-60.232c2.194,-0.807 4.403,-1.538 6.625,-2.184c25.494,-7.404 47.106,-24.475 59.738,-56.356c18.016,-45.472 -20.779,-77.052 -42.106,-37.397c-11.166,20.762 -47.792,72.798 -92.814,80.088Z" style="fill:#7b2f17;"/><path d="M514.41,598.373c-25.648,3.523 -50.375,-1.915 -68.557,-15.849c45.022,-7.29 81.648,-59.326 92.814,-80.088c21.327,-39.655 60.122,-8.075 42.106,37.397c-12.632,31.881 -34.244,48.952 -59.738,56.356c-2.222,0.646 -4.431,1.377 -6.625,2.184Z" style="fill:#dd680a;"/></g></g><g><g><path d="M368.029,475.678c2.669,-1.333 5.542,-1 6.412,0.743c0.87,1.742 -0.591,4.238 -3.261,5.57c-2.669,1.333 -5.542,1 -6.412,-0.743c-0.869,-1.742 0.592,-4.238 3.261,-5.57Z" style="fill:#fff;"/><path d="M358.436,476.843c1.37,-0.683 2.927,-0.346 3.476,0.753c0.548,1.099 -0.119,2.546 -1.488,3.23c-1.37,0.683 -2.928,0.346 -3.476,-0.753c-0.549,-1.099 0.118,-2.546 1.488,-3.23Z" style="fill:#fff;"/></g><g><path d="M283.64,617.741c5.744,-19.988 17.553,-37.055 41.342,-48.351c-12.743,15.713 -29.158,30.143 -41.342,48.351Z" style="fill:#fff;"/><path d="M268.066,649.531c13.336,-26.793 30.351,-50.163 59.064,-62.652c-22.324,17.017 -37.717,38.892 -59.064,62.652Z" style="fill:#fff;"/><path d="M573.424,446.202c15.438,-6.854 32.916,-9.82 55.048,-3.918c-18.35,3.407 -36.699,4.385 -55.048,3.918Z" style="fill:#fff;"/><path d="M636.866,442.717c20.104,0.311 40.208,2.699 60.312,18.163c-25.797,-8.633 -51.517,-12.919 -60.312,-18.163Z" style="fill:#fff;"/></g><g><path d="M195.602,324.389c8.056,-4.288 17.453,-5.294 28.77,-1.605c-9.59,3.562 -19.18,4.427 -28.77,1.605Z" style="fill:#fff;"/><path d="M230.409,323.054c11.646,-0.301 23.857,3.1 36.877,11.798c-13.333,-1.091 -25.739,-4.713 -36.877,-11.798Z" style="fill:#fff;"/><path d="M434.562,280.375c9.926,8.908 18.022,21.258 23.5,38.531c-10.472,-11.36 -18.593,-24.042 -23.5,-38.531Z" style="fill:#fff;"/><path d="M415.909,263.292c6.336,1.691 10.422,5.91 11.291,13.748c-6.267,-2.881 -10.303,-7.277 -11.291,-13.748Z" style="fill:#fff;"/></g></g></g></g></svg>